<svg height="511pt" viewBox="-30 0 511 511.99836" width="511pt" xmlns="http://www.w3.org/2000/svg"><path d="m191.878906 78.132812c-4.269531 0-7.726562-3.460937-7.726562-7.726562 0-17.4375-6.25-36.375-10.886719-48.015625-13.910156 21.070313-13.53125 47.523437-13.527344 47.828125.09375 4.261719-3.285156 7.800781-7.542969 7.898438-4.265624.117187-7.796874-3.261719-7.90625-7.523438-.042968-1.703125-.742187-42.027344 25.507813-68.324219 1.75-1.757812 4.238281-2.5625 6.6875-2.1718748 2.445313.3906248 4.558594 1.9296878 5.675781 4.1445318.710938 1.40625 17.441406 34.855468 17.441406 66.164062 0 4.265625-3.457031 7.726562-7.722656 7.726562zm0 0" fill="#fb6572"/><path d="m259.71875 78.132812c-4.265625 0-7.726562-3.460937-7.726562-7.726562 0-31.308594 16.730468-64.757812 17.445312-66.164062 1.117188-2.214844 3.226562-3.753907 5.675781-4.1445318 2.445313-.3945312 4.933594.4179688 6.6875 2.1718748 26.246094 26.296875 25.546875 66.621094 25.503907 68.324219-.105469 4.265625-3.613282 7.617188-7.917969 7.53125-4.261719-.105469-7.628907-3.644531-7.527344-7.90625.007813-.402344.355469-26.796875-13.53125-47.828125-4.632813 11.640625-10.882813 30.574219-10.882813 48.015625 0 4.265625-3.457031 7.726562-7.726562 7.726562zm0 0" fill="#fb6572"/><path d="m451.097656 417.238281s-14.929687 12.1875-41.238281 26.835938c-5.378906 3-11.230469 6.101562-17.523437 9.210937h-333.074219c-37.105469-18.367187-58.757813-36.046875-58.757813-36.046875 85.617188-85.59375 152.660156-208.195312 152.660156-208.195312s0-10.765625 0-36.035157c0-25.257812-17.894531-92.652343-17.894531-92.652343 7.015625-19.75 23.917969-23.941407 41.238281-22.128907 24.226563 2.546876 49.292969 16.875 49.292969 16.875s73.695313-42.113281 90.539063 5.253907c0 0-17.902344 67.394531-17.902344 92.652343v36.035157s67.042969 122.601562 152.660156 208.195312zm0 0" fill="#fee372"/><path d="m198.609375 173.011719c-5.027344 20.984375-18.121094 65.28125-18.121094 65.28125l-10.25 20.386719-19.417969 194.609374h-91.5625c-37.105468-18.367187-58.757812-36.046874-58.757812-36.046874 85.617188-85.59375 152.660156-208.195313 152.660156-208.195313s0-10.765625 0-36.035156c0-25.257813-17.894531-92.652344-17.894531-92.652344 7.015625-19.75 23.921875-23.941406 41.238281-22.128906l.039063.023437c-37.332031 58.210938 29.308593 84.5625 22.066406 114.757813zm0 0" fill="#eabe32"/><path d="m298.4375 209.046875h-145.28125v-36.035156h145.28125" fill="#fb6572"/><path d="m197.269531 209.046875h-44.113281v-36.035156h44.113281" fill="#ea394e"/><path d="m409.859375 444.074219c-5.378906 3-11.230469 6.101562-17.523437 9.210937h-318.527344c-1.886719-1.234375-2.863282-1.9375-2.863282-1.9375 65.476563-83.082031 129.351563-142.316406 129.351563-142.316406l81.058594-50.34375s64.808593 103.335938 128.503906 185.386719zm0 0" fill="#eabe32"/><path d="m170.242188 258.683594s-51.273438 118.980468-116.746094 202.0625c0 0 71.660156 51.253906 172.300781 51.253906 100.644531 0 172.304687-51.253906 172.304687-51.253906-65.472656-83.082032-116.75-202.0625-116.75-202.0625" fill="#fee372"/></svg>